<mxfile host="app.diagrams.net" modified="2024-07-02T05:49:08.795Z" agent="Mozilla/5.0 (Macintosh; Intel Mac OS X 10.15; rv:128.0) Gecko/20100101 Firefox/128.0" version="24.6.2" etag="TD8bxyl_07MJ39Mt2pbb" type="github">
  <diagram name="第 1 页" id="LZ5Ib-XKXefDqkbRXiGa">
    <mxGraphModel>
      <root>
        <mxCell id="0" />
        <mxCell id="1" parent="0" />
      </root>
    </mxGraphModel>
  </diagram>
</mxfile>
